<svg xmlns="http://www.w3.org/2000/svg" viewBox="0 0 200 200">
  <rect width="200" height="200" fill="#ffffff"/>
  <rect x="20" y="20" width="160" height="160" fill="none" stroke="#111111" stroke-width="12"/>
  <rect x="48" y="48" width="104" height="104" fill="#ffffff"/>
  <rect x="56" y="56" width="88" height="88" fill="none" stroke="#111111" stroke-width="10"/>
  <rect x="78" y="78" width="44" height="44" fill="#111111"/>
  <g fill="#111111">
    <rect x="8" y="8" width="8" height="8"/>
    <rect x="184" y="8" width="8" height="8"/>
    <rect x="8" y="184" width="8" height="8"/>
    <rect x="184" y="184" width="8" height="8"/>
    <rect x="100" y="8" width="8" height="8"/>
    <rect x="8" y="100" width="8" height="8"/>
    <rect x="184" y="100" width="8" height="8"/>
    <rect x="100" y="184" width="8" height="8"/>
  </g>
  <g fill="#111111" opacity="0.85">
    <rect x="28" y="96" width="12" height="12"/>
    <rect x="160" y="96" width="12" height="12"/>
    <rect x="96" y="28" width="12" height="12"/>
    <rect x="96" y="160" width="12" height="12"/>
    <rect x="36" y="36" width="10" height="10"/>
    <rect x="154" y="36" width="10" height="10"/>
    <rect x="36" y="154" width="10" height="10"/>
    <rect x="154" y="154" width="10" height="10"/>
  </g>
</svg>
